<svg xmlns="http://www.w3.org/2000/svg" width="178" height="38" viewBox="0 0 178 38">
    <g fill="none" fill-rule="evenodd">
        <path fill="#D1D1D1" d="M4.283 24.107c-.705 0-1.258-.256-1.66-.768h-.085c.057.502.086.792.086.87v2.434H.985v-8.648h1.332l.231.779h.076c.383-.594.95-.892 1.702-.892.71 0 1.264.274 1.665.822.401.548.602 1.309.602 2.283 0 .64-.094 1.198-.282 1.67-.188.473-.456.833-.803 1.08-.347.247-.756.37-1.225.37zM3.8 19.193c-.405 0-.7.124-.886.373-.187.249-.283.66-.29 1.233v.177c0 .645.095 1.107.287 1.386.192.28.495.419.91.419.734 0 1.101-.605 1.101-1.816 0-.59-.09-1.034-.27-1.329-.182-.295-.465-.443-.852-.443zm5.57 1.794c0 .594.098 1.044.293 1.348.196.304.513.457.954.457.437 0 .75-.152.942-.454.192-.303.288-.753.288-1.351 0-.595-.097-1.04-.29-1.338-.194-.297-.51-.445-.95-.445-.438 0-.753.147-.946.443-.194.295-.29.742-.29 1.34zm4.153 0c0 .977-.258 1.742-.774 2.293-.515.552-1.233.827-2.154.827-.576 0-1.085-.126-1.525-.378a2.52 2.52 0 0 1-1.015-1.088c-.237-.473-.355-1.024-.355-1.654 0-.981.256-1.744.768-2.288.512-.545 1.232-.817 2.16-.817.576 0 1.085.126 1.525.376.44.251.779.61 1.015 1.08.236.469.355 1.019.355 1.649zM19.71 24l-.462-2.1-.623-2.653h-.037L17.493 24H15.73l-1.708-6.005h1.633l.693 2.659c.11.476.224 1.133.338 1.971h.032c.015-.272.077-.704.188-1.294l.086-.457.742-2.879h1.804l.704 2.879c.014.079.037.195.067.35a20.998 20.998 0 0 1 .167 1.002c.023.165.036.299.04.399h.032c.032-.258.09-.611.172-1.06.082-.45.141-.754.177-.911l.72-2.659h1.606L21.494 24h-1.783zm7.086-4.952c-.348 0-.62.11-.817.33-.197.22-.31.533-.338.937h2.299c-.008-.404-.113-.717-.317-.937-.204-.22-.48-.33-.827-.33zm.23 5.06c-.966 0-1.722-.267-2.266-.8-.544-.534-.816-1.29-.816-2.267 0-1.007.251-1.785.754-2.334.503-.55 1.199-.825 2.087-.825.848 0 1.51.242 1.982.725.472.484.709 1.152.709 2.004v.795h-3.873c.018.465.156.829.414 1.09.258.261.62.392 1.085.392.361 0 .703-.037 1.026-.113a5.133 5.133 0 0 0 1.01-.36v1.268c-.287.143-.593.25-.92.32a5.79 5.79 0 0 1-1.191.104zm7.253-6.226c.222 0 .406.016.553.049l-.124 1.536a1.877 1.877 0 0 0-.483-.054c-.523 0-.93.134-1.222.403-.292.268-.438.644-.438 1.128V24h-1.638v-6.005h1.24l.242 1.01h.08c.187-.337.439-.608.756-.814a1.86 1.86 0 0 1 1.034-.309zm4.029 1.166c-.347 0-.62.11-.817.33-.197.22-.31.533-.338.937h2.299c-.007-.404-.113-.717-.317-.937-.204-.22-.48-.33-.827-.33zm.23 5.06c-.966 0-1.722-.267-2.266-.8-.544-.534-.816-1.29-.816-2.267 0-1.007.251-1.785.754-2.334.504-.55 1.2-.825 2.087-.825.849 0 1.51.242 1.982.725.473.484.709 1.152.709 2.004v.795h-3.873c.018.465.156.829.414 1.09.258.261.62.392 1.085.392.362 0 .704-.037 1.026-.113a5.133 5.133 0 0 0 1.01-.36v1.268c-.287.143-.593.25-.919.32a5.79 5.79 0 0 1-1.192.104zm5.803 0c-.706 0-1.26-.275-1.663-.822-.403-.548-.604-1.307-.604-2.278 0-.984.205-1.752.615-2.301.41-.55.975-.825 1.695-.825.755 0 1.332.294 1.729.881h.054a6.697 6.697 0 0 1-.124-1.198v-1.922h1.644V24H46.43l-.317-.779h-.07c-.372.591-.94.886-1.702.886zm.574-1.306c.42 0 .726-.121.921-.365.196-.243.302-.657.32-1.24v-.178c0-.644-.1-1.106-.298-1.386-.199-.279-.522-.419-.97-.419a.962.962 0 0 0-.85.465c-.203.31-.304.76-.304 1.35 0 .592.102 1.035.306 1.33.204.296.496.443.875.443zm10.922-4.92c.709 0 1.264.277 1.665.83.4.553.601 1.312.601 2.275 0 .992-.206 1.76-.62 2.304-.414.544-.977.816-1.69.816-.705 0-1.258-.256-1.659-.768h-.113l-.274.661h-1.251v-8.357h1.638v1.944c0 .247-.021.643-.064 1.187h.064c.383-.594.95-.892 1.703-.892zm-.527 1.31c-.404 0-.7.125-.886.374-.186.249-.283.66-.29 1.233v.177c0 .645.096 1.107.287 1.386.192.28.495.419.91.419.337 0 .605-.155.804-.465.199-.31.298-.76.298-1.35 0-.591-.1-1.035-.3-1.33a.943.943 0 0 0-.823-.443zm3.186-1.197h1.794l1.134 3.379c.096.293.163.64.198 1.042h.033c.039-.37.116-.717.23-1.042l1.112-3.379h1.757l-2.54 6.773c-.234.627-.566 1.096-.997 1.407-.432.312-.936.468-1.512.468-.283 0-.56-.03-.833-.092v-1.3a2.8 2.8 0 0 0 .645.07c.29 0 .543-.088.76-.266.217-.177.386-.444.508-.803l.096-.295-2.385-5.962z"/>
        <g transform="translate(73)">
            <circle cx="19" cy="19" r="19" fill="#E0E0E0"/>
            <path fill="#FFF" d="M22.474 15.443h5.162L12.436 30.4V10.363h15.2l-5.162 5.08z"/>
        </g>
        <path fill="#D2D2D2" d="M121.544 14.56v-1.728h8.272v1.728h-3.024V24h-2.24v-9.44h-3.008zm13.744 9.568c-1.29 0-2.341-.419-3.152-1.256-.81-.837-1.216-1.944-1.216-3.32s.408-2.477 1.224-3.304c.816-.827 1.872-1.24 3.168-1.24s2.36.403 3.192 1.208c.832.805 1.248 1.88 1.248 3.224 0 .31-.021.597-.064.864h-6.464c.053.576.267 1.04.64 1.392.373.352.848.528 1.424.528.779 0 1.355-.32 1.728-.96h2.432a3.891 3.891 0 0 1-1.488 2.064c-.736.533-1.627.8-2.672.8zm1.48-6.688c-.4-.352-.883-.528-1.448-.528s-1.037.176-1.416.528c-.379.352-.605.821-.68 1.408h4.192c-.032-.587-.248-1.056-.648-1.408zm7.016-2.304v1.568c.597-1.13 1.461-1.696 2.592-1.696v2.304h-.56c-.672 0-1.179.168-1.52.504-.341.336-.512.915-.512 1.736V24h-2.256v-8.864h2.256zm6.448 0v1.328c.565-.97 1.483-1.456 2.752-1.456.672 0 1.272.155 1.8.464.528.31.936.752 1.224 1.328.31-.555.733-.992 1.272-1.312a3.488 3.488 0 0 1 1.816-.48c1.056 0 1.907.33 2.552.992.645.661.968 1.59.968 2.784V24h-2.24v-4.896c0-.693-.176-1.224-.528-1.592-.352-.368-.832-.552-1.44-.552s-1.09.184-1.448.552c-.357.368-.536.899-.536 1.592V24h-2.24v-4.896c0-.693-.176-1.224-.528-1.592-.352-.368-.832-.552-1.44-.552s-1.09.184-1.448.552c-.357.368-.536.899-.536 1.592V24h-2.256v-8.864h2.256zM164.936 24V12.16h2.256V24h-2.256zm7.04-.16l-3.472-8.704h2.528l2.256 6.304 2.384-6.304h2.352l-5.536 13.056h-2.352l1.84-4.352z"/>
    </g>
</svg>
